<svg xmlns="http://www.w3.org/2000/svg" width="30" height="28.64" viewBox="0 0 30 28.64">
  <defs>
    <style>
      .cls-1 {
        fill: #715343;
      }
    </style>
  </defs>
  <path id="Instagram" class="cls-1" d="M20.75,87.53H9.25A9.26,9.26,0,0,1,0,78.27V68.14a9.26,9.26,0,0,1,9.25-9.25h11.5A9.26,9.26,0,0,1,30,68.14V78.27a9.26,9.26,0,0,1-9.25,9.26ZM9.25,61a7.2,7.2,0,0,0-7.19,7.19V78.27a7.2,7.2,0,0,0,7.19,7.2h11.5a7.2,7.2,0,0,0,7.19-7.2V68.14A7.2,7.2,0,0,0,20.75,61ZM15,81.45a8.24,8.24,0,1,1,8.24-8.24A8.24,8.24,0,0,1,15,81.45ZM15,67a6.18,6.18,0,1,0,6.18,6.18A6.18,6.18,0,0,0,15,67Zm8.11-3.51a1.7,1.7,0,1,1,0,.03Z" transform="translate(0 -58.89)"/>
</svg>
